<?xml version="1.0" encoding="UTF-8"?>
<!-- Generator: Adobe Illustrator 25.0.0, SVG Export Plug-In . SVG Version: 6.00 Build 0)  -->
<svg version="1.1" id="Layer_1" xmlns="http://www.w3.org/2000/svg" xmlns:xlink="http://www.w3.org/1999/xlink" x="0px" y="0px" viewBox="0 0 111.5 111.5" style="enable-background:new 0 0 111.5 111.5;" xml:space="preserve">
<style type="text/css">
	.st0{fill:#808080;}
</style>
<g>
	<g>
		<polygon class="st0" points="19.3,7.1 19.9,6.3 103.4,51.9 102.9,52.8   "/>
	</g>
	<g>
		<polygon class="st0" points="8.1,24 8.9,23.4 74.8,104.6 74.1,105.2   "/>
	</g>
	<g>
		<path class="st0" d="M16.6,6.3h3.3V24H17V12.2l-3,7l-3-7V24H8.1V6.3h3.3l2.6,6.3L16.6,6.3z"/>
	</g>
	<g>
		<path class="st0" d="M74.1,105.2V51.9h29.3v8.8H83v11.9h8.6v8.8H83v23.8H74.1L74.1,105.2z"/>
	</g>
	<g>
		<path class="st0" d="M51.2,27.5h5.5v30.3h-4.8V37.7l-5.2,11.9l-5.2-11.9v20.1h-4.8V27.5h5.5l4.4,10.8L51.2,27.5z"/>
	</g>
</g>
</svg>